<mxfile host="65bd71144e">
    <diagram id="w5JNn2PqXmtoSWrKy9qq" name="Page-1">
        <mxGraphModel dx="467" dy="398" grid="1" gridSize="10" guides="1" tooltips="1" connect="1" arrows="1" fold="1" page="1" pageScale="1" pageWidth="827" pageHeight="1169" math="0" shadow="0">
            <root>
                <mxCell id="0"/>
                <mxCell id="1" parent="0"/>
                <mxCell id="2" value="Extract High Rep Blocks" style="points=[[0.25,0,0],[0.5,0,0],[0.75,0,0],[1,0.25,0],[1,0.5,0],[1,0.75,0],[0.75,1,0],[0.5,1,0],[0.25,1,0],[0,0.75,0],[0,0.5,0],[0,0.25,0]];shape=mxgraph.bpmn.task;whiteSpace=wrap;rectStyle=rounded;size=10;html=1;taskMarker=abstract;" vertex="1" parent="1">
                    <mxGeometry x="160" y="240" width="120" height="40" as="geometry"/>
                </mxCell>
                <mxCell id="3" value="Derive/Improve&lt;br&gt;Model of Monomers" style="points=[[0.25,0,0],[0.5,0,0],[0.75,0,0],[1,0.25,0],[1,0.5,0],[1,0.75,0],[0.75,1,0],[0.5,1,0],[0.25,1,0],[0,0.75,0],[0,0.5,0],[0,0.25,0]];shape=mxgraph.bpmn.task;whiteSpace=wrap;rectStyle=rounded;size=10;html=1;taskMarker=abstract;" vertex="1" parent="1">
                    <mxGeometry x="160" y="390" width="120" height="40" as="geometry"/>
                </mxCell>
                <mxCell id="4" value="" style="points=[[0.145,0.145,0],[0.5,0,0],[0.855,0.145,0],[1,0.5,0],[0.855,0.855,0],[0.5,1,0],[0.145,0.855,0],[0,0.5,0]];shape=mxgraph.bpmn.event;html=1;verticalLabelPosition=bottom;labelBackgroundColor=#ffffff;verticalAlign=top;align=center;perimeter=ellipsePerimeter;outlineConnect=0;aspect=fixed;outline=standard;symbol=general;" vertex="1" parent="1">
                    <mxGeometry x="195" y="160" width="50" height="50" as="geometry"/>
                </mxCell>
                <mxCell id="5" value="" style="points=[[0.145,0.145,0],[0.5,0,0],[0.855,0.145,0],[1,0.5,0],[0.855,0.855,0],[0.5,1,0],[0.145,0.855,0],[0,0.5,0]];shape=mxgraph.bpmn.event;html=1;verticalLabelPosition=bottom;labelBackgroundColor=#ffffff;verticalAlign=top;align=center;perimeter=ellipsePerimeter;outlineConnect=0;aspect=fixed;outline=end;symbol=terminate2;" vertex="1" parent="1">
                    <mxGeometry x="195" y="980" width="50" height="50" as="geometry"/>
                </mxCell>
                <mxCell id="6" value="" style="edgeStyle=elbowEdgeStyle;fontSize=12;html=1;endArrow=blockThin;endFill=1;exitX=0.5;exitY=1;exitDx=0;exitDy=0;exitPerimeter=0;" edge="1" parent="1" source="4" target="2">
                    <mxGeometry width="160" relative="1" as="geometry">
                        <mxPoint x="270" y="310" as="sourcePoint"/>
                        <mxPoint x="430" y="310" as="targetPoint"/>
                    </mxGeometry>
                </mxCell>
                <mxCell id="7" value="Extract Monomers" style="points=[[0.25,0,0],[0.5,0,0],[0.75,0,0],[1,0.25,0],[1,0.5,0],[1,0.75,0],[0.75,1,0],[0.5,1,0],[0.25,1,0],[0,0.75,0],[0,0.5,0],[0,0.25,0]];shape=mxgraph.bpmn.task;whiteSpace=wrap;rectStyle=rounded;size=10;html=1;taskMarker=abstract;" vertex="1" parent="1">
                    <mxGeometry x="160" y="460" width="120" height="40" as="geometry"/>
                </mxCell>
                <mxCell id="8" value="" style="edgeStyle=elbowEdgeStyle;fontSize=12;html=1;endArrow=blockThin;endFill=1;exitX=0.5;exitY=1;exitDx=0;exitDy=0;exitPerimeter=0;entryX=0.5;entryY=0;entryDx=0;entryDy=0;entryPerimeter=0;" edge="1" parent="1" source="3" target="7">
                    <mxGeometry width="160" relative="1" as="geometry">
                        <mxPoint x="70" y="480" as="sourcePoint"/>
                        <mxPoint x="230" y="480" as="targetPoint"/>
                    </mxGeometry>
                </mxCell>
                <mxCell id="9" value="" style="edgeStyle=elbowEdgeStyle;fontSize=12;html=1;endArrow=blockThin;endFill=1;exitX=0.5;exitY=1;exitDx=0;exitDy=0;exitPerimeter=0;entryX=0.5;entryY=0;entryDx=0;entryDy=0;entryPerimeter=0;" edge="1" parent="1" source="13" target="3">
                    <mxGeometry width="160" relative="1" as="geometry">
                        <mxPoint x="90" y="310" as="sourcePoint"/>
                        <mxPoint x="250" y="310" as="targetPoint"/>
                    </mxGeometry>
                </mxCell>
                <mxCell id="10" value="" style="points=[[0.25,0.25,0],[0.5,0,0],[0.75,0.25,0],[1,0.5,0],[0.75,0.75,0],[0.5,1,0],[0.25,0.75,0],[0,0.5,0]];shape=mxgraph.bpmn.gateway2;html=1;verticalLabelPosition=bottom;labelBackgroundColor=#ffffff;verticalAlign=top;align=center;perimeter=rhombusPerimeter;outlineConnect=0;outline=none;symbol=none;gwType=exclusive;" vertex="1" parent="1">
                    <mxGeometry x="195" y="535" width="50" height="50" as="geometry"/>
                </mxCell>
                <mxCell id="11" value="" style="edgeStyle=elbowEdgeStyle;fontSize=12;html=1;endArrow=blockThin;endFill=1;exitX=0.5;exitY=1;exitDx=0;exitDy=0;exitPerimeter=0;entryX=0.5;entryY=0;entryDx=0;entryDy=0;entryPerimeter=0;" edge="1" parent="1" source="7" target="10">
                    <mxGeometry width="160" relative="1" as="geometry">
                        <mxPoint x="270" y="690" as="sourcePoint"/>
                        <mxPoint x="430" y="690" as="targetPoint"/>
                    </mxGeometry>
                </mxCell>
                <mxCell id="12" value="" style="edgeStyle=elbowEdgeStyle;fontSize=12;html=1;endArrow=blockThin;endFill=1;exitX=1;exitY=0.5;exitDx=0;exitDy=0;exitPerimeter=0;entryX=1;entryY=0.5;entryDx=0;entryDy=0;entryPerimeter=0;" edge="1" parent="1" source="10" target="13">
                    <mxGeometry width="160" relative="1" as="geometry">
                        <mxPoint x="230" y="650" as="sourcePoint"/>
                        <mxPoint x="340" y="490" as="targetPoint"/>
                        <Array as="points">
                            <mxPoint x="340" y="570"/>
                        </Array>
                    </mxGeometry>
                </mxCell>
                <mxCell id="13" value="" style="points=[[0.25,0.25,0],[0.5,0,0],[0.75,0.25,0],[1,0.5,0],[0.75,0.75,0],[0.5,1,0],[0.25,0.75,0],[0,0.5,0]];shape=mxgraph.bpmn.gateway2;html=1;verticalLabelPosition=bottom;labelBackgroundColor=#ffffff;verticalAlign=top;align=center;perimeter=rhombusPerimeter;outlineConnect=0;outline=none;symbol=none;gwType=exclusive;" vertex="1" parent="1">
                    <mxGeometry x="195" y="310" width="50" height="50" as="geometry"/>
                </mxCell>
                <mxCell id="14" value="" style="edgeStyle=elbowEdgeStyle;fontSize=12;html=1;endArrow=blockThin;endFill=1;exitX=0.5;exitY=1;exitDx=0;exitDy=0;exitPerimeter=0;entryX=0.5;entryY=0;entryDx=0;entryDy=0;entryPerimeter=0;" edge="1" parent="1" source="2" target="13">
                    <mxGeometry width="160" relative="1" as="geometry">
                        <mxPoint x="230" y="380" as="sourcePoint"/>
                        <mxPoint x="230" y="450" as="targetPoint"/>
                    </mxGeometry>
                </mxCell>
                <mxCell id="15" value="Measure Distances" style="points=[[0.25,0,0],[0.5,0,0],[0.75,0,0],[1,0.25,0],[1,0.5,0],[1,0.75,0],[0.75,1,0],[0.5,1,0],[0.25,1,0],[0,0.75,0],[0,0.5,0],[0,0.25,0]];shape=mxgraph.bpmn.task;whiteSpace=wrap;rectStyle=rounded;size=10;html=1;taskMarker=abstract;" vertex="1" parent="1">
                    <mxGeometry x="160" y="690" width="120" height="40" as="geometry"/>
                </mxCell>
                <mxCell id="16" value="Derive/improve Monomer Clusters" style="points=[[0.25,0,0],[0.5,0,0],[0.75,0,0],[1,0.25,0],[1,0.5,0],[1,0.75,0],[0.75,1,0],[0.5,1,0],[0.25,1,0],[0,0.75,0],[0,0.5,0],[0,0.25,0]];shape=mxgraph.bpmn.task;whiteSpace=wrap;rectStyle=rounded;size=10;html=1;taskMarker=abstract;" vertex="1" parent="1">
                    <mxGeometry x="160" y="760" width="120" height="40" as="geometry"/>
                </mxCell>
                <mxCell id="17" value="" style="edgeStyle=elbowEdgeStyle;fontSize=12;html=1;endArrow=blockThin;endFill=1;exitX=0.5;exitY=1;exitDx=0;exitDy=0;exitPerimeter=0;entryX=0.5;entryY=0;entryDx=0;entryDy=0;entryPerimeter=0;" edge="1" source="15" target="16" parent="1">
                    <mxGeometry width="160" relative="1" as="geometry">
                        <mxPoint x="70" y="840" as="sourcePoint"/>
                        <mxPoint x="230" y="840" as="targetPoint"/>
                    </mxGeometry>
                </mxCell>
                <mxCell id="18" value="" style="edgeStyle=elbowEdgeStyle;fontSize=12;html=1;endArrow=blockThin;endFill=1;exitX=0.5;exitY=1;exitDx=0;exitDy=0;exitPerimeter=0;entryX=0.5;entryY=0;entryDx=0;entryDy=0;entryPerimeter=0;" edge="1" source="22" target="15" parent="1">
                    <mxGeometry width="160" relative="1" as="geometry">
                        <mxPoint x="90" y="670" as="sourcePoint"/>
                        <mxPoint x="250" y="670" as="targetPoint"/>
                    </mxGeometry>
                </mxCell>
                <mxCell id="19" value="" style="points=[[0.25,0.25,0],[0.5,0,0],[0.75,0.25,0],[1,0.5,0],[0.75,0.75,0],[0.5,1,0],[0.25,0.75,0],[0,0.5,0]];shape=mxgraph.bpmn.gateway2;html=1;verticalLabelPosition=bottom;labelBackgroundColor=#ffffff;verticalAlign=top;align=center;perimeter=rhombusPerimeter;outlineConnect=0;outline=none;symbol=none;gwType=exclusive;" vertex="1" parent="1">
                    <mxGeometry x="195" y="900" width="50" height="50" as="geometry"/>
                </mxCell>
                <mxCell id="20" value="" style="edgeStyle=elbowEdgeStyle;fontSize=12;html=1;endArrow=blockThin;endFill=1;entryX=0.5;entryY=0;entryDx=0;entryDy=0;entryPerimeter=0;exitX=0.5;exitY=1;exitDx=0;exitDy=0;exitPerimeter=0;" edge="1" source="24" target="19" parent="1">
                    <mxGeometry width="160" relative="1" as="geometry">
                        <mxPoint x="100" y="1110" as="sourcePoint"/>
                        <mxPoint x="430" y="1050" as="targetPoint"/>
                    </mxGeometry>
                </mxCell>
                <mxCell id="21" value="" style="edgeStyle=elbowEdgeStyle;fontSize=12;html=1;endArrow=blockThin;endFill=1;exitX=1;exitY=0.5;exitDx=0;exitDy=0;exitPerimeter=0;entryX=1;entryY=0.5;entryDx=0;entryDy=0;entryPerimeter=0;" edge="1" source="19" target="22" parent="1">
                    <mxGeometry width="160" relative="1" as="geometry">
                        <mxPoint x="230" y="1010" as="sourcePoint"/>
                        <mxPoint x="340" y="850" as="targetPoint"/>
                        <Array as="points">
                            <mxPoint x="340" y="930"/>
                        </Array>
                    </mxGeometry>
                </mxCell>
                <mxCell id="22" value="" style="points=[[0.25,0.25,0],[0.5,0,0],[0.75,0.25,0],[1,0.5,0],[0.75,0.75,0],[0.5,1,0],[0.25,0.75,0],[0,0.5,0]];shape=mxgraph.bpmn.gateway2;html=1;verticalLabelPosition=bottom;labelBackgroundColor=#ffffff;verticalAlign=top;align=center;perimeter=rhombusPerimeter;outlineConnect=0;outline=none;symbol=none;gwType=exclusive;" vertex="1" parent="1">
                    <mxGeometry x="195" y="610" width="50" height="50" as="geometry"/>
                </mxCell>
                <mxCell id="23" value="" style="edgeStyle=elbowEdgeStyle;fontSize=12;html=1;endArrow=blockThin;endFill=1;exitX=0.5;exitY=1;exitDx=0;exitDy=0;exitPerimeter=0;entryX=0.5;entryY=0;entryDx=0;entryDy=0;entryPerimeter=0;" edge="1" target="22" parent="1" source="10">
                    <mxGeometry width="160" relative="1" as="geometry">
                        <mxPoint x="220" y="720" as="sourcePoint"/>
                        <mxPoint x="230" y="870" as="targetPoint"/>
                    </mxGeometry>
                </mxCell>
                <mxCell id="24" value="Derive/Improve&lt;br&gt;HORs" style="points=[[0.25,0,0],[0.5,0,0],[0.75,0,0],[1,0.25,0],[1,0.5,0],[1,0.75,0],[0.75,1,0],[0.5,1,0],[0.25,1,0],[0,0.75,0],[0,0.5,0],[0,0.25,0]];shape=mxgraph.bpmn.task;whiteSpace=wrap;rectStyle=rounded;size=10;html=1;taskMarker=abstract;" vertex="1" parent="1">
                    <mxGeometry x="160" y="830" width="120" height="40" as="geometry"/>
                </mxCell>
                <mxCell id="25" value="" style="edgeStyle=elbowEdgeStyle;fontSize=12;html=1;endArrow=blockThin;endFill=1;exitX=0.5;exitY=1;exitDx=0;exitDy=0;exitPerimeter=0;entryX=0.5;entryY=0;entryDx=0;entryDy=0;entryPerimeter=0;" edge="1" target="24" parent="1" source="16">
                    <mxGeometry width="160" relative="1" as="geometry">
                        <mxPoint x="75" y="930" as="sourcePoint"/>
                        <mxPoint x="85" y="930" as="targetPoint"/>
                    </mxGeometry>
                </mxCell>
                <mxCell id="26" value="" style="edgeStyle=elbowEdgeStyle;fontSize=12;html=1;endArrow=blockThin;endFill=1;entryX=0.5;entryY=0;entryDx=0;entryDy=0;entryPerimeter=0;exitX=0.5;exitY=1;exitDx=0;exitDy=0;exitPerimeter=0;" edge="1" parent="1" source="19" target="5">
                    <mxGeometry width="160" relative="1" as="geometry">
                        <mxPoint x="230" y="1030" as="sourcePoint"/>
                        <mxPoint x="230" y="1069" as="targetPoint"/>
                    </mxGeometry>
                </mxCell>
            </root>
        </mxGraphModel>
    </diagram>
</mxfile>